#!OML:ASF E:\motion texture\Top Level 1\Subject 1\Session 1\male.ASF
:FULLY-SPECIFIED
:DEGREES
353
root -19.7779 18.0206 4.12652 787.825 -79.9974 -783.969
lowerback -1.38686 -2.1347 5.60182
upperback -0.592951 -3.07998 5.27872
thorax 0.169943 -1.60435 2.25415
lowerneck -14.6944 -0.00494839 -5.04303
upperneck 29.9438 1.97505 -4.38225
head 12.3819 -0.583472 -0.573837
rclavicle -1.54307e-014 1.35174e-014
rhumerus -31.2297 3.44985 -85.735
rradius 87.8184
rwrist -45.2139
rhand -12.0956 -47.5516
rfingers 7.12502
rthumb 13.9648 -77.0625
lclavicle -1.54307e-014 1.35174e-014
lhumerus -30.1041 -3.06895 89.909
lradius 77.233
lwrist 39.6765
lhand -9.60934 35.8961
lfingers 7.12502
lthumb 16.3598 65.2261
rfemur -14.2522 2.85126 32.481
rtibia 14.7073
rfoot -1.38963 -11.9188
rtoes 21.9152
lfemur -14.8781 -1.42495 -5.94203
ltibia 61.6264
lfoot 9.67423 -10.1252
ltoes -8.82684
354
root -19.9346 18.0348 4.10866 788.433 -80.0332 -784.683
lowerback -1.3864 -1.97393 5.62479
upperback -0.588923 -2.86405 5.23151
thorax 0.170528 -1.49561 2.19501
lowerneck -14.6929 -0.0660928 -5.12421
upperneck 29.8189 1.87972 -4.2618
head 12.3285 -0.609448 -0.524907
rclavicle 1.65488e-014 -2.70347e-014
rhumerus -31.2061 2.98974 -85.3247
rradius 88.0442
rwrist -45.0799
rhand -11.9867 -47.7101
rfingers 7.12502
rthumb 14.0698 -77.2138
lclavicle 1.65488e-014 -2.70347e-014
lhumerus -30.5123 -3.61586 89.6704
lradius 77.4166
lwrist 38.492
lhand -9.22699 35.8601
lfingers 7.12502
lthumb 16.7279 65.1594
rfemur -13.466 2.98183 32.6745
rtibia 14.5666
rfoot -1.85501 -11.8853
rtoes 21.679
lfemur -15.8833 -0.938209 -5.80574
ltibia 62.7384
lfoot 8.58793 -9.27998
ltoes -9.38956
355
root -20.0903 18.0488 4.09132 789.123 -80.1077 -785.449
lowerback -1.41623 -1.81221 5.61581
upperback -0.581237 -2.64874 5.17036
thorax 0.193158 -1.38643 2.13787
lowerneck -14.7253 -0.120289 -5.19509
upperneck 29.7095 1.8009 -4.15999
head 12.2891 -0.630571 -0.482972
rclavicle 2.25372e-014 -3.33958e-014
rhumerus -31.1468 2.49575 -84.8997
rradius 88.2725
rwrist -44.9513
rhand -11.8983 -47.8743
rfingers 7.12502
rthumb 14.155 -77.3721
lclavicle 2.25372e-014 -3.33958e-014
lhumerus -30.9596 -3.97386 89.4003
lradius 77.7176
lwrist 37.447
lhand -8.77431 35.6882
lfingers 7.12502
lthumb 17.1637 64.9501
rfemur -12.7229 3.12791 32.8301
rtibia 14.4407
rfoot -2.30896 -11.8459
rtoes 21.4143
lfemur -16.892 -0.433699 -5.71933
ltibia 63.6894
lfoot 7.58523 -8.46494
ltoes -9.75096
356
root -20.2452 18.0621 4.07454 789.884 -80.2057 -786.267
lowerback -1.46072 -1.65337 5.58683
upperback -0.576391 -2.43761 5.09974
thorax 0.221867 -1.27906 2.08176
lowerneck -14.7652 -0.165843 -5.25774
upperneck 29.6145 1.73732 -4.07362
head 12.2576 -0.647156 -0.446547
rclavicle -2.4699e-014 1.23246e-014
rhumerus -31.0774 1.96736 -84.461
rradius 88.516
rwrist -44.8322
rhand -11.8557 -48.0394
rfingers 7.12502
rthumb 14.1961 -77.5343
lclavicle -2.4699e-014 1.23246e-014
lhumerus -31.4675 -4.13095 89.0979
lradius 78.137
lwrist 36.5071
lhand -8.22697 35.3951
lfingers 7.12502
lthumb 17.6904 64.6104
rfemur -12.0073 3.2711 32.9619
rtibia 14.32
rfoot -2.73238 -11.7963
rtoes 21.0794
lfemur -17.8918 0.0694619 -5.67036
ltibia 64.4744
lfoot 6.66926 -7.70935
ltoes -10.1136
357
root -20.399 18.0742 4.05847 790.696 -80.3147 -787.126
lowerback -1.50902 -1.49978 5.55143
upperback -0.572968 -2.2332 5.02105
thorax 0.251446 -1.1749 2.02105
lowerneck -14.8061 -0.204633 -5.31055
upperneck 29.5297 1.6855 -4.0043
head 12.231 -0.660504 -0.416888
rclavicle -5.71506e-015 3.97569e-014
rhumerus -30.9986 1.40392 -84.0067
rradius 88.7767
rwrist -44.7225
rhand -11.8775 -48.2
rfingers 7.12502
rthumb 14.175 -77.6964
lclavicle -5.71506e-015 3.97569e-014
lhumerus -32.0177 -4.09451 88.7596
lradius 78.6553
lwrist 35.6695
lhand -7.64169 35.0492
lfingers 7.12502
lthumb 18.2536 64.2128
rfemur -11.3079 3.40284 33.0795
rtibia 14.2
rfoot -3.12454 -11.7347
rtoes 20.6498
lfemur -18.8697 0.553007 -5.65006
ltibia 65.0901
lfoot 5.83383 -7.01568
ltoes -10.4664
358
root -20.5517 18.0848 4.04332 791.569 -80.4248 -788.042
lowerback -1.54733 -1.3477 5.52598
upperback -0.571306 -2.02949 4.93268
thorax 0.273218 -1.07113 1.94549
lowerneck -14.8595 -0.240738 -5.35329
upperneck 29.4623 1.63911 -3.94572
head 12.2142 -0.672854 -0.392671
rclavicle -1.21756e-014 9.26337e-014
rhumerus -30.9157 0.781892 -83.5329
rradius 89.0601
rwrist -44.6131
rhand -11.9216 -48.3166
rfingers 7.12502
rthumb 14.1326 -77.816
lclavicle -1.21756e-014 9.26337e-014
lhumerus -32.5949 -3.88303 88.3792
lradius 79.258
lwrist 34.9317
lhand -7.01864 34.6775
lfingers 7.12502
lthumb 18.8529 63.7839
rfemur -10.6232 3.5269 33.192
rtibia 14.0868
rfoot -3.51087 -11.677
rtoes 20.2456
lfemur -19.8264 1.01045 -5.64854
ltibia 65.5495
lfoot 5.03337 -6.39528
ltoes -10.8412
359
root -20.7029 18.0935 4.02909 792.522 -80.5351 -789.033
lowerback -1.57344 -1.19578 5.51085
upperback -0.575001 -1.82441 4.83671
thorax 0.282521 -0.966855 1.85709
lowerneck -14.8994 -0.273763 -5.39248
upperneck 29.4005 1.59612 -3.89341
head 12.197 -0.684571 -0.371087
rclavicle 6.79595e-015 -3.45885e-014
rhumerus -30.8366 0.0948077 -83.0292
rradius 89.3652
rwrist -44.4906
rhand -11.9869 -48.3747
rfingers 7.12502
rthumb 14.0697 -77.8785
lclavicle 6.79595e-015 -3.45885e-014
lhumerus -33.1874 -3.52248 87.956
lradius 79.9321
lwrist 34.3041
lhand -6.39936 34.3293
lfingers 7.12502
lthumb 19.4484 63.3766
rfemur -9.95883 3.64864 33.2998
rtibia 13.9921
rfoot -3.91026 -11.6276
rtoes 19.9409
lfemur -20.759 1.44024 -5.66302
ltibia 65.8559
lfoot 4.23977 -5.85367
ltoes -11.1647
360
root -20.8523 18.1004 4.01608 793.563 -80.6364 -790.109
lowerback -1.58509 -1.0447 5.51873
upperback -0.582687 -1.61913 4.73369
thorax 0.279366 -0.862737 1.74926
lowerneck -14.9288 -0.304893 -5.43861
upperneck 29.3444 1.55424 -3.83402
head 12.1799 -0.696047 -0.345621
rclavicle -4.41053e-015 4.05521e-014
rhumerus -30.7631 -0.670473 -82.4912
rradius 89.6928
rwrist -44.3263
rhand -12.0485 -48.3853
rfingers 7.12502
rthumb 14.0103 -77.8931
lclavicle -4.41053e-015 4.05521e-014
lhumerus -33.7843 -3.03029 87.4827
lradius 80.6748
lwrist 33.781
lhand -5.84322 34.065
lfingers 7.12502
lthumb 19.9831 63.0575
rfemur -9.31845 3.77377 33.4109
rtibia 13.9233
rfoot -4.32686 -11.5866
rtoes 19.7248
lfemur -21.674 1.84382 -5.68355
ltibia 66.0236
lfoot 3.39255 -5.37843
ltoes -11.4692
361
root -20.9997 18.1055 4.00429 794.697 -80.7208 -791.275
lowerback -1.58506 -0.891208 5.55814
upperback -0.588751 -1.41028 4.6258
thorax 0.271306 -0.756991 1.61929
lowerneck -14.9671 -0.340668 -5.48902
upperneck 29.2934 1.50706 -3.77197
head 12.1667 -0.710293 -0.319344
rclavicle -1.50082e-014 -3.97569e-016
rhumerus -30.6786 -1.52164 -81.9091
rradius 90.0319
rwrist -44.1123
rhand -12.0441 -48.3309
rfingers 7.12502
rthumb 14.0146 -77.8385
lclavicle -1.50082e-014 -3.97569e-016
lhumerus -34.3568 -2.43374 86.9587
lradius 81.4697
lwrist 33.3309
lhand -5.40392 33.9042
lfingers 7.12502
lthumb 20.4053 62.8521
rfemur -8.70795 3.90337 33.5329
rtibia 13.8893
rfoot -4.77361 -11.5507
rtoes 19.6368
lfemur -22.571 2.21978 -5.69986
ltibia 66.0541
lfoot 2.4578 -4.96722
ltoes -11.8496
362
root -21.1457 18.109 3.99338 795.907 -80.7867 -792.512
lowerback -1.56653 -0.733181 5.62764
upperback -0.602493 -1.1938 4.51363
thorax 0.245449 -0.647944 1.46877
lowerneck -14.9962 -0.380385 -5.53539
upperneck 29.2519 1.45387 -3.71697
head 12.1557 -0.728271 -0.297502
rclavicle 6.7711e-015 -3.57812e-015
rhumerus -30.6125 -2.46456 -81.2766
rradius 90.393
rwrist -43.8509
rhand -12.0042 -48.2158
rfingers 7.12502
rthumb 14.0529 -77.7207
lclavicle 6.7711e-015 -3.57812e-015
lhumerus -34.914 -1.756 86.3852
lradius 82.3083
lwrist 32.9022
lhand -5.03204 33.8977
lfingers 7.12502
lthumb 20.7626 62.807
rfemur -8.12502 4.03477 33.6672
rtibia 13.8876
rfoot -5.2164 -11.5094
rtoes 19.497
lfemur -23.4487 2.56452 -5.7082
ltibia 65.948
lfoot 1.45214 -4.60521
ltoes -12.2735
